<svg width="480" height="480" viewBox="0 0 480 480" fill="none" xmlns="http://www.w3.org/2000/svg">
<g clip-path="url(#clip0_1432_3075)">
<path d="M480 475.137L324.404 329.864L287.748 240.053L240 123.021L288.172 5L384.07 240.053L480 475.137Z" fill="#ED1C24"/>
<path d="M480 475.137L324.404 329.864L287.748 240.053L240 123.021L288.172 5L384.07 240.053L480 475.137Z" fill="url(#paint0_linear_1432_3075)"/>
<path d="M288 295.789L239.804 340.823L95.9996 475.137L155.298 329.676L191.586 295.789H288Z" fill="#ED1C24"/>
<path opacity="0.5" d="M288 295.789L239.804 340.823L95.9996 475.137L155.298 329.676L191.586 295.789H288Z" fill="black"/>
<path d="M480 475.137H383.659L240 340.823L288.155 295.789L324.39 329.655L480 475.137Z" fill="#ED1C24"/>
<path d="M480 475.137H383.659L240 340.823L288.155 295.789L324.39 329.655L480 475.137Z" fill="url(#paint1_linear_1432_3075)"/>
<path d="M288 5L239.855 123.021L192.134 240.053L155.499 329.885L96.2896 475.137H0L95.8661 240.053L191.732 5H288Z" fill="#ED1C24"/>
</g>
<defs>
<linearGradient id="paint0_linear_1432_3075" x1="512.071" y1="617.154" x2="296.775" y2="126.722" gradientUnits="userSpaceOnUse">
<stop stop-color="#BE1E2D" stop-opacity="0"/>
<stop offset="1" stop-color="#231F20" stop-opacity="0.5"/>
</linearGradient>
<linearGradient id="paint1_linear_1432_3075" x1="240" y1="385.463" x2="480" y2="385.463" gradientUnits="userSpaceOnUse">
<stop stop-color="#BE1E2D" stop-opacity="0"/>
<stop offset="1" stop-color="#231F20" stop-opacity="0.5"/>
</linearGradient>
<clipPath id="clip0_1432_3075">
<rect width="480" height="480" fill="white"/>
</clipPath>
</defs>
</svg>
